<svg width="64" height="50" viewBox="0 0 64 50" fill="none" xmlns="http://www.w3.org/2000/svg">
<g clip-path="url(#clip0_1_44)">
<path d="M34.4027 2.08355C34.4027 1.53101 34.6815 1.00111 35.1778 0.610408C35.6741 0.219708 36.3473 0.000214223 37.0491 0.000214223C44.0654 0.00628005 50.7922 2.20316 55.7534 6.10886C60.7147 10.0146 63.5053 15.3101 63.5131 20.8336C63.5131 21.3861 63.2342 21.916 62.7379 22.3067C62.2416 22.6974 61.5685 22.9169 60.8667 22.9169C60.1648 22.9169 59.4917 22.6974 58.9954 22.3067C58.4991 21.916 58.2203 21.3861 58.2203 20.8336C58.214 16.4148 55.9814 12.1784 52.0124 9.05392C48.0434 5.92938 42.6621 4.17184 37.0491 4.16688C36.3473 4.16688 35.6741 3.94739 35.1778 3.55669C34.6815 3.16599 34.4027 2.63608 34.4027 2.08355V2.08355ZM37.0491 12.5002C39.8566 12.5002 42.5491 13.3782 44.5342 14.941C46.5194 16.5038 47.6347 18.6234 47.6347 20.8336C47.6347 21.3861 47.9135 21.916 48.4098 22.3067C48.9061 22.6974 49.5792 22.9169 50.2811 22.9169C50.983 22.9169 51.6561 22.6974 52.1524 22.3067C52.6487 21.916 52.9275 21.3861 52.9275 20.8336C52.9233 17.5194 51.249 14.3419 48.2722 11.9984C45.2953 9.65488 41.259 8.33686 37.0491 8.33355C36.3473 8.33355 35.6741 8.55304 35.1778 8.94374C34.6815 9.33444 34.4027 9.86435 34.4027 10.4169C34.4027 10.9694 34.6815 11.4993 35.1778 11.89C35.6741 12.2807 36.3473 12.5002 37.0491 12.5002V12.5002ZM61.1128 34.8731C62.6464 36.0838 63.5076 37.7238 63.5076 39.4335C63.5076 41.1433 62.6464 42.7833 61.1128 43.994L58.7046 46.1794C37.0306 62.5148 -15.712 21.0044 4.71813 3.88771L7.76149 1.80438C9.30108 0.630792 11.3657 -0.0184335 13.5087 -0.00283819C15.6516 0.0127572 17.7007 0.691919 19.2124 1.88771C19.2945 1.9523 24.1982 6.96688 24.1982 6.96688C25.6533 8.17027 26.4633 9.76882 26.4598 11.4302C26.4564 13.0916 25.6398 14.6881 24.1797 15.8877L21.1152 18.921C22.8111 22.165 25.3046 25.1132 28.4523 27.5962C31.6001 30.0793 35.34 32.0482 39.4573 33.3898L43.3343 30.9627C44.8584 29.8142 46.8859 29.1721 48.9957 29.1698C51.1055 29.1674 53.1354 29.8051 54.6635 30.9502C54.6635 30.9502 61.0307 34.8085 61.1128 34.8731ZM57.4713 37.9023C57.4713 37.9023 51.1385 34.0669 51.0565 34.0023C50.5113 33.5767 49.7746 33.338 49.0068 33.338C48.2391 33.338 47.5024 33.5767 46.9572 34.0023C46.8858 34.0606 41.548 37.4085 41.548 37.4085C41.1883 37.6339 40.7602 37.7817 40.3059 37.8372C39.8516 37.8927 39.3868 37.8541 38.9572 37.7252C33.6233 36.1618 28.7784 33.7143 24.7509 30.5483C20.7233 27.3823 17.6071 23.5719 15.6133 19.3752C15.4366 19.0324 15.3789 18.6587 15.4464 18.2926C15.5138 17.9264 15.7039 17.581 15.9971 17.2919C15.9971 17.2919 20.2498 13.0877 20.3213 13.0335C20.8618 12.6044 21.1651 12.0244 21.1651 11.42C21.1651 10.8156 20.8618 10.2357 20.3213 9.80646C20.2392 9.74396 15.3672 4.75438 15.3672 4.75438C14.8139 4.36377 14.0917 4.15458 13.3487 4.16969C12.6057 4.18479 11.8982 4.42305 11.3712 4.83563L8.32781 6.91896C-6.60314 21.0523 39.1027 55.0377 54.8355 43.3335L57.2464 41.146C57.8113 40.7341 58.1507 40.1653 58.1927 39.56C58.2346 38.9547 57.976 38.3602 57.4713 37.9023V37.9023Z" fill="white"/>
</g>
<defs>
<clipPath id="clip0_1_44">
<rect width="63.5135" height="50" fill="white"/>
</clipPath>
</defs>
</svg>
