<svg width="64" height="64" viewBox="0 0 64 64" fill="none" xmlns="http://www.w3.org/2000/svg">
<g clip-path="url(#clip0_1_45)">
<path d="M50.2788 2.64581H13.2313C9.72339 2.65001 6.36041 4.04537 3.87998 6.5258C1.39955 9.00623 0.00420187 12.3692 0 15.8771L0 47.6321C0.00420187 51.1399 1.39955 54.5029 3.87998 56.9833C6.36041 59.4638 9.72339 60.8591 13.2313 60.8633H50.2788C53.7866 60.8591 57.1496 59.4638 59.63 56.9833C62.1104 54.5029 63.5058 51.1399 63.51 47.6321V15.8771C63.5058 12.3692 62.1104 9.00623 59.63 6.5258C57.1496 4.04537 53.7866 2.65001 50.2788 2.64581V2.64581ZM13.2313 7.93831H50.2788C51.8633 7.94143 53.4106 8.41865 54.7217 9.30855C56.0327 10.1985 57.0475 11.4603 57.6353 12.9318L37.3703 33.1994C35.879 34.6848 33.8599 35.5188 31.755 35.5188C29.6501 35.5188 27.631 34.6848 26.1397 33.1994L5.87468 12.9318C6.46254 11.4603 7.47728 10.1985 8.78832 9.30855C10.0994 8.41865 11.6467 7.94143 13.2313 7.93831V7.93831ZM50.2788 55.5708H13.2313C11.1258 55.5708 9.10651 54.7344 7.61771 53.2456C6.1289 51.7568 5.2925 49.7376 5.2925 47.6321V19.8464L22.3979 36.9412C24.8817 39.4188 28.2468 40.8101 31.755 40.8101C35.2632 40.8101 38.6283 39.4188 41.1121 36.9412L58.2175 19.8464V47.6321C58.2175 49.7376 57.3811 51.7568 55.8923 53.2456C54.4035 54.7344 52.3842 55.5708 50.2788 55.5708Z" fill="white"/>
</g>
<defs>
<clipPath id="clip0_1_45">
<rect width="63.51" height="63.51" fill="white"/>
</clipPath>
</defs>
</svg>
