<svg width="59" height="60" viewBox="0 0 59 60" fill="none" xmlns="http://www.w3.org/2000/svg">
<g clip-path="url(#clip0_1_13)">
<path d="M46.6949 0H12.2881C9.03032 0.00396964 5.90705 1.3222 3.60342 3.66555C1.29979 6.00889 0.00390236 9.18601 0 12.5L0 47.5C0.00390236 50.814 1.29979 53.9911 3.60342 56.3345C5.90705 58.6778 9.03032 59.996 12.2881 60H46.6949C49.9527 59.996 53.076 58.6778 55.3796 56.3345C57.6833 53.9911 58.9791 50.814 58.983 47.5V12.5C58.9791 9.18601 57.6833 6.00889 55.3796 3.66555C53.076 1.3222 49.9527 0.00396964 46.6949 0V0ZM17.2034 55V52.5C17.2034 49.1848 18.498 46.0054 20.8025 43.6612C23.107 41.317 26.2325 40 29.4915 40C32.7505 40 35.8761 41.317 38.1805 43.6612C40.485 46.0054 41.7797 49.1848 41.7797 52.5V55H17.2034ZM54.0678 47.5C54.0678 49.4891 53.291 51.3968 51.9083 52.8033C50.5256 54.2098 48.6503 55 46.6949 55V52.5C46.6949 47.8587 44.8824 43.4075 41.6562 40.1256C38.4299 36.8437 34.0541 35 29.4915 35C24.9289 35 20.5532 36.8437 17.3269 40.1256C14.1006 43.4075 12.2881 47.8587 12.2881 52.5V55C10.3327 55 8.4574 54.2098 7.07472 52.8033C5.69204 51.3968 4.91525 49.4891 4.91525 47.5V12.5C4.91525 10.5109 5.69204 8.60322 7.07472 7.1967C8.4574 5.79018 10.3327 5 12.2881 5H46.6949C48.6503 5 50.5256 5.79018 51.9083 7.1967C53.291 8.60322 54.0678 10.5109 54.0678 12.5V47.5Z" fill="white"/>
<path d="M29.4918 10.0007C27.5475 10.0007 25.6469 10.5872 24.0302 11.686C22.4136 12.7848 21.1536 14.3466 20.4096 16.1739C19.6655 18.0012 19.4708 20.0118 19.8501 21.9516C20.2295 23.8914 21.1657 25.6733 22.5405 27.0718C23.9154 28.4703 25.667 29.4227 27.5739 29.8086C29.4809 30.1944 31.4575 29.9964 33.2537 29.2395C35.05 28.4827 36.5853 27.2009 37.6655 25.5564C38.7457 23.9119 39.3223 21.9785 39.3223 20.0007C39.3223 17.3486 38.2866 14.805 36.443 12.9297C34.5994 11.0543 32.099 10.0007 29.4918 10.0007ZM29.4918 25.0007C28.5196 25.0007 27.5693 24.7075 26.761 24.1581C25.9527 23.6087 25.3227 22.8278 24.9507 21.9141C24.5786 21.0005 24.4813 19.9952 24.671 19.0253C24.8606 18.0554 25.3287 17.1645 26.0162 16.4652C26.7036 15.7659 27.5794 15.2897 28.5329 15.0968C29.4863 14.9039 30.4746 15.0029 31.3728 15.3813C32.2709 15.7598 33.0386 16.4006 33.5787 17.2229C34.1187 18.0451 34.407 19.0118 34.407 20.0007C34.407 21.3268 33.8892 22.5986 32.9674 23.5363C32.0456 24.4739 30.7954 25.0007 29.4918 25.0007Z" fill="white"/>
</g>
<defs>
<clipPath id="clip0_1_13">
<rect width="58.9831" height="60" fill="white"/>
</clipPath>
</defs>
</svg>
